<?xml version="1.0" encoding="UTF-8"?>
<svg version="1.1" xmlns="http://www.w3.org/2000/svg" width="242" height="242">
<path d="M0 0 C1 1 1 1 1.11352539 3.31665039 C1.10828857 4.31688232 1.10305176 5.31711426 1.09765625 6.34765625 C1.09443359 7.42724609 1.09121094 8.50683594 1.08789062 9.61914062 C1.07951172 10.75544922 1.07113281 11.89175781 1.0625 13.0625 C1.05798828 14.20267578 1.05347656 15.34285156 1.04882812 16.51757812 C1.03699747 19.34510351 1.0205141 22.1725264 1 25 C2.39445749 25.19747219 3.79068152 25.38248587 5.1875 25.5625 C5.96480469 25.66691406 6.74210938 25.77132813 7.54296875 25.87890625 C10.19912494 26.00981379 12.42241629 25.6180707 15 25 C14.98952637 24.31373535 14.97905273 23.6274707 14.96826172 22.92041016 C14.92678126 19.82197711 14.90069931 16.72360239 14.875 13.625 C14.85824219 12.54476563 14.84148437 11.46453125 14.82421875 10.3515625 C14.81777344 9.3203125 14.81132812 8.2890625 14.8046875 7.2265625 C14.79421387 6.27346191 14.78374023 5.32036133 14.77294922 4.33837891 C15 2 15 2 17 0 C22.45875024 0 25.84444281 1.65097144 30.0703125 5.0546875 C36.55006391 11.58690653 39.10655328 18.71285647 39.25 27.75 C39.14487841 35.55766707 38.03139343 41.02422203 32.4375 46.609375 C26.92357716 53.55301853 28.00241597 62.12522004 28.0625 70.5625 C28.04937297 72.25588671 28.03312412 73.94925226 28.01367188 75.64257812 C27.97307824 79.76235547 27.97486909 83.88012072 28 88 C28.58426758 88.26264648 29.16853516 88.52529297 29.77050781 88.79589844 C33.68702533 90.91112669 36.59916596 94.14681562 39.75 97.25 C40.44738281 97.90613281 41.14476562 98.56226562 41.86328125 99.23828125 C46.7982397 104.09598007 46.7982397 104.09598007 47.70703125 108.16796875 C46.58341615 112.66863698 43.73652292 115.19791622 40.65234375 118.53515625 C38.69375846 120.89783817 38.69375846 120.89783817 39.25390625 123.80859375 C39.50011719 124.53175781 39.74632812 125.25492187 40 126 C44.95382625 127.50768625 49.8538542 128.57346174 54.9609375 129.4375 C55.63382813 129.623125 56.30671875 129.80875 57 130 C59.23139155 134.4627831 58.18499699 140.59910332 58.1875 145.5 C58.19974609 146.76199219 58.21199219 148.02398437 58.22460938 149.32421875 C58.22654297 150.52691406 58.22847656 151.72960937 58.23046875 152.96875 C58.23457764 154.07669922 58.23868652 155.18464844 58.24291992 156.32617188 C58 159 58 159 56 161 C53.28383215 161.62592451 50.61828333 162.16067916 47.875 162.625 C47.12089844 162.7590625 46.36679688 162.893125 45.58984375 163.03125 C43.72780082 163.36123229 41.86404825 163.68154073 40 164 C39.18481117 166.26532033 39.18481117 166.26532033 39 169 C40.35129721 171.50735049 40.35129721 171.50735049 42.375 173.75 C43.02210938 174.52859375 43.66921875 175.3071875 44.3359375 176.109375 C45.20167694 177.09298507 46.07344899 178.07344899 47 179 C47.5625 182.125 47.5625 182.125 47 186 C45.23893708 187.98901777 43.32444166 189.52610246 41.234375 191.1640625 C38.28844425 193.58466993 35.96629515 196.37091632 33.54296875 199.30078125 C31.45386255 201.60144251 29.71665324 202.88585326 26.62109375 203.37890625 C22.21919157 202.7425657 19.76607964 199.58978857 16.59765625 196.65234375 C14.04386705 194.66330383 14.04386705 194.66330383 10.68359375 195.25390625 C9.35521484 195.62322266 9.35521484 195.62322266 8 196 C7.80664062 197.13179687 7.61328125 198.26359375 7.4140625 199.4296875 C7.15145714 200.91153202 6.88841352 202.39329892 6.625 203.875 C6.49867188 204.62136719 6.37234375 205.36773437 6.2421875 206.13671875 C5.2265625 211.7734375 5.2265625 211.7734375 3 214 C0.84521484 214.22705078 0.84521484 214.22705078 -1.7890625 214.1953125 C-3.20058594 214.18564453 -3.20058594 214.18564453 -4.640625 214.17578125 C-5.62546875 214.15902344 -6.6103125 214.14226562 -7.625 214.125 C-8.61757812 214.11597656 -9.61015625 214.10695312 -10.6328125 214.09765625 C-13.08864388 214.07404249 -15.54435174 214.0381707 -18 214 C-18 218.62 -18 223.24 -18 228 C-20.70612106 229.35306053 -22.81469911 229.12903966 -25.84570312 229.13371277 C-27.71343384 229.14011024 -27.71343384 229.14011024 -29.61889648 229.14663696 C-31.00634769 229.14628742 -32.39379887 229.14582588 -33.78125 229.14526367 C-35.23641039 229.14825444 -36.69156998 229.15165678 -38.14672852 229.15544128 C-42.10530004 229.16429281 -46.06384996 229.16661985 -50.02243042 229.16725707 C-53.32286051 229.16820512 -56.62328554 229.17188212 -59.92371368 229.17542917 C-67.70695756 229.18357774 -75.49018985 229.18601299 -83.2734375 229.18530273 C-91.3134664 229.1847015 -99.35342831 229.19526153 -107.39344025 229.2110464 C-114.2877255 229.2241016 -121.18198879 229.2294875 -128.07628632 229.22884732 C-132.19777275 229.22859178 -136.31919965 229.23147376 -140.44067383 229.24202538 C-144.3148061 229.25167274 -148.18882149 229.25180883 -152.06295776 229.24450874 C-153.48762176 229.24345876 -154.91229291 229.24585011 -156.33694458 229.2518692 C-158.27604748 229.2595335 -160.21518983 229.25377033 -162.15429688 229.24723816 C-163.78473938 229.24805531 -163.78473938 229.24805531 -165.44812012 229.24888897 C-168 229 -168 229 -170 227 C-170.26069641 225.1631012 -170.26069641 225.1631012 -170.2746582 222.90844727 C-170.28419022 222.06318985 -170.29372223 221.21793243 -170.30354309 220.34706116 C-170.30263168 219.42944504 -170.30172028 218.51182892 -170.30078125 217.56640625 C-170.30506638 216.61869858 -170.3093515 215.67099091 -170.31376648 214.69456482 C-170.31952048 212.68123167 -170.32000221 210.66787773 -170.31567383 208.65454102 C-170.31254456 205.60590856 -170.33585173 202.55827578 -170.36132812 199.50976562 C-170.41340195 183.98633618 -169.28532322 172.4049615 -158.6875 160.375 C-157.3571875 159.199375 -157.3571875 159.199375 -156 158 C-155.41597412 157.47905762 -154.83194824 156.95811523 -154.23022461 156.42138672 C-147.98589549 151.1873315 -141.49845903 148.47328343 -133.875 145.75 C-131.60120725 144.91242211 -129.32775954 144.07390683 -127.0546875 143.234375 C-126.0037793 142.85087891 -124.95287109 142.46738281 -123.87011719 142.07226562 C-120.52462227 140.82240056 -117.26049833 139.45541085 -114 138 C-114.03780298 135.62766389 -114.03780298 135.62766389 -115 133 C-116.3677379 132.03257563 -117.74703923 131.07677646 -119.18359375 130.21484375 C-127.38410343 124.73020179 -132.08557912 117.47304754 -134.25 108 C-134.51085353 106.6687475 -134.76495406 105.33605059 -135 104 C-135.88042969 104.04640625 -136.76085937 104.0928125 -137.66796875 104.140625 C-138.82941406 104.17671875 -139.99085938 104.2128125 -141.1875 104.25 C-142.33605469 104.29640625 -143.48460937 104.3428125 -144.66796875 104.390625 C-148.68599772 103.91957823 -150.18842362 102.85652165 -153 100 C-155.6284347 95.61449513 -155.33138539 91.5444653 -155.3125 86.5625 C-155.32861328 85.71623047 -155.34472656 84.86996094 -155.36132812 83.99804688 C-155.36504811 79.24762064 -155.29156854 75.72183894 -152 72 C-149.3125 70.6875 -149.3125 70.6875 -147 70 C-147.05800781 69.07960938 -147.11601562 68.15921875 -147.17578125 67.2109375 C-147.65357648 53.80536846 -144.29034771 42.74179461 -136 32 C-135.2575 30.96875 -134.515 29.9375 -133.75 28.875 C-123.23799338 17.8851749 -109.22018069 12.08309686 -94.1875 11.6875 C-79.24299698 11.96038566 -66.061571 17.19800865 -55.25 27.59375 C-45.44856361 38.0758417 -40.58201746 49.9078751 -39.89526367 64.17602539 C-39.61697143 68.14929019 -39.11983201 69.85919739 -36.5 72.9375 C-35.675 73.618125 -34.85 74.29875 -34 75 C-31.63970756 77.36029244 -32.67143796 83.02338653 -32.625 86.1875 C-32.56892578 87.60772461 -32.56892578 87.60772461 -32.51171875 89.05664062 C-32.4539356 93.65682179 -32.44673382 96.98560946 -35.3984375 100.67578125 C-38 103 -38 103 -40 103 C-39.95359375 103.79664062 -39.9071875 104.59328125 -39.859375 105.4140625 C-39.49507274 116.10893611 -39.49507274 116.10893611 -44 121 C-47.68087353 123.45391569 -50.44355588 123.22802759 -54.6875 123.125 C-55.38939453 123.11597656 -56.09128906 123.10695313 -56.81445312 123.09765625 C-58.54311525 123.07413704 -60.27160145 123.03826713 -62 123 C-62.26941406 123.60457031 -62.53882812 124.20914063 -62.81640625 124.83203125 C-65.04681366 128.91743096 -68.64142799 131.54714266 -73 133 C-73.495 135.97 -73.495 135.97 -74 139 C-73.12214844 139.185625 -73.12214844 139.185625 -72.2265625 139.375 C-62.63261486 141.67985229 -53.91535874 145.87088446 -45 150 C-45.04640625 149.17757812 -45.0928125 148.35515625 -45.140625 147.5078125 C-45.48126282 136.97237134 -43.40611322 129.1009787 -36.76171875 120.81640625 C-33.57716049 117.53299253 -29.98582015 115.20594529 -26 113 C-25.39671875 112.65839844 -24.7934375 112.31679687 -24.171875 111.96484375 C-16.74591288 108.49401363 -6.23496154 108.5287262 1.4375 111.1875 C2.613125 111.785625 3.78875 112.38375 5 113 C5.65097656 113.32871094 6.30195313 113.65742187 6.97265625 113.99609375 C15.02288129 118.47878168 20.56849116 124.67394013 23.5 133.4375 C26.3747807 144.42555067 25.49367506 154.22625049 19.8125 164.1875 C14.42837445 172.1431482 7.16615707 176.74481185 -1.88671875 179.59375 C-4.63810378 180.1226669 -7.26213622 180.13194018 -10.0625 180.125 C-11.10535156 180.12757813 -12.14820313 180.13015625 -13.22265625 180.1328125 C-16 180 -16 180 -19 179 C-18.67 179.66 -18.34 180.32 -18 181 C-17.91528636 182.81341842 -17.89278917 184.62994161 -17.90234375 186.4453125 C-17.90556641 187.52167969 -17.90878906 188.59804687 -17.91210938 189.70703125 C-17.92048828 190.83496094 -17.92886719 191.96289062 -17.9375 193.125 C-17.94201172 194.26066406 -17.94652344 195.39632812 -17.95117188 196.56640625 C-17.96298372 199.37762647 -17.98091959 202.18881972 -18 205 C-13.05 205 -8.1 205 -3 205 C-2.855625 202.916875 -2.71125 200.83375 -2.5625 198.6875 C-2.32107631 195.20410111 -2.10514766 192.31544299 -1 189 C1.51171875 187.578125 1.51171875 187.578125 4.6875 186.25 C5.72261719 185.80140625 6.75773438 185.3528125 7.82421875 184.890625 C11.44955662 183.87392508 13.40456355 183.93343429 17 185 C19.5546875 186.62890625 19.5546875 186.62890625 21.875 188.5625 C23.04675781 189.52349609 23.04675781 189.52349609 24.2421875 190.50390625 C24.82226562 190.99761719 25.40234375 191.49132812 26 192 C26.9075 191.278125 27.815 190.55625 28.75 189.8125 C29.26046875 189.40644531 29.7709375 189.00039062 30.296875 188.58203125 C32.45728786 186.57522572 34.19907544 184.32945677 36 182 C35.41089844 181.27554688 34.82179687 180.55109375 34.21484375 179.8046875 C33.08755859 178.35449219 33.08755859 178.35449219 31.9375 176.875 C31.18339844 175.92367187 30.42929688 174.97234375 29.65234375 173.9921875 C27.63033975 170.3305916 27.88268613 168.95758838 29 165 C29.30744141 163.66195312 29.30744141 163.66195312 29.62109375 162.296875 C30.50016068 159.55452266 31.35012777 157.36926821 33 155 C38.08906772 152.57330905 43.4612432 153 49 153 C49 148.05 49 143.1 49 138 C44.20080711 137.54143968 44.20080711 137.54143968 39.3972168 137.1340332 C37.57421875 136.92578125 37.57421875 136.92578125 34 136 C32.125 133.63671875 32.125 133.63671875 31 131 C30.443125 129.845 29.88625 128.69 29.3125 127.5 C28.05429196 124.14477856 27.58603525 122.48685691 28 119 C29.67434047 116.5239803 31.58199306 114.41557505 33.56640625 112.18359375 C35.20027021 110.15038637 35.20027021 110.15038637 34.9375 107.95703125 C33.78394772 105.54899086 32.37500756 104.08182533 30.4375 102.25 C29.79683594 101.63640625 29.15617188 101.0228125 28.49609375 100.390625 C28.00238281 99.93171875 27.50867188 99.4728125 27 99 C24.14324985 100.30629174 22.59421977 101.38733567 20.25 103.625 C17.40302106 106.01646231 15.04366555 106.76350699 11.2265625 106.46875 C6.6135141 105.49758192 2.63233085 104.06563261 -1 101 C-3.36778437 95.84406375 -3 90.59229891 -3 85 C-7.95 85 -12.9 85 -18 85 C-18.66 89.62 -19.32 94.24 -20 99 C-22.97 98.67 -25.94 98.34 -29 98 C-28.71766639 95.24874911 -28.42452667 92.49938663 -28.125 89.75 C-28.04636719 88.97269531 -27.96773437 88.19539063 -27.88671875 87.39453125 C-27.80292969 86.64042969 -27.71914062 85.88632813 -27.6328125 85.109375 C-27.55949707 84.41811523 -27.48618164 83.72685547 -27.41064453 83.01464844 C-27 81 -27 81 -25 77 C-20.38 77 -15.76 77 -11 77 C-10.97889602 72.99627268 -11.00671977 69.00278921 -11.0625 65 C-11.04606445 63.31197266 -11.04606445 63.31197266 -11.02929688 61.58984375 C-11.14949351 55.71737939 -11.44324402 51.89661937 -15.4375 47.40625 C-16.365625 46.52936523 -16.365625 46.52936523 -17.3125 45.63476562 C-21.76792429 41.31857334 -22.14158504 36.11644207 -22.34985352 30.13696289 C-22.48000589 19.07653814 -20.55389118 13.20185983 -13.1328125 4.98046875 C-8.91726875 1.06603527 -5.80227648 -0.52747968 0 0 Z M-130 39 C-136.45458975 48.31971936 -138.45160637 57.8241161 -139 69 C-138.01 69 -137.02 69 -136 69 C-135.84144531 68.10539062 -135.68289062 67.21078125 -135.51953125 66.2890625 C-132.51867999 50.73768965 -127.27014909 41.62271722 -114.23046875 32.734375 C-104.38935176 27.45087325 -91.4190664 27.56099409 -80.63671875 29.65234375 C-71.03119062 32.81795627 -63.1098072 39.29111121 -58 48 C-54.49867812 54.9457117 -52.38873161 61.22536788 -52 69 C-51.01 69 -50.02 69 -49 69 C-48.20163696 57.22414516 -52.11647111 46.50844791 -59 37 C-60.46714774 35.24463622 -60.46714774 35.24463622 -62 34 C-62.66 34 -63.32 34 -64 34 C-64.495 32.515 -64.495 32.515 -65 31 C-85.98481051 14.18524799 -113.43734734 19.22320881 -130 39 Z M-80 69 C-81.44632813 70.06541016 -81.44632813 70.06541016 -82.921875 71.15234375 C-84.19767982 72.08105461 -85.47373464 73.00942212 -86.75 73.9375 C-87.38421875 74.40607422 -88.0184375 74.87464844 -88.671875 75.35742188 C-89.290625 75.80537109 -89.909375 76.25332031 -90.546875 76.71484375 C-91.39523926 77.33540649 -91.39523926 77.33540649 -92.26074219 77.96850586 C-96.18725807 80.29718772 -100.25337553 80.1788317 -104.734375 80.31640625 C-106.02988281 80.35830078 -107.32539062 80.40019531 -108.66015625 80.44335938 C-110.02343476 80.48316671 -111.38671606 80.52287906 -112.75 80.5625 C-114.12891875 80.60572274 -115.50782526 80.64933821 -116.88671875 80.69335938 C-120.2577119 80.79943958 -123.62877826 80.9014985 -127 81 C-127.05880804 84.16658663 -127.09386406 87.33302993 -127.125 90.5 C-127.14175781 91.386875 -127.15851563 92.27375 -127.17578125 93.1875 C-127.25761184 104.31646087 -124.34003608 112.34610569 -116.9375 120.6875 C-109.22958126 127.91470983 -99.95996887 129.82672584 -89.6484375 129.5078125 C-84.19893972 128.74931709 -79.72607404 126.75114497 -75 124 C-75 123.67 -75 123.34 -75 123 C-81.27 123 -87.54 123 -94 123 C-94 120.36 -94 117.72 -94 115 C-84.76 115 -75.52 115 -66 115 C-60.16397465 103.3279493 -59.68998931 93.76210663 -60 81 C-60.56847656 80.92523438 -61.13695313 80.85046875 -61.72265625 80.7734375 C-68.03520079 79.69851339 -71.55442444 77.52129096 -76 73 C-76.72574219 72.27554688 -77.45148438 71.55109375 -78.19921875 70.8046875 C-78.79347656 70.20914063 -79.38773438 69.61359375 -80 69 Z M-52 104 C-53.32 107.3 -54.64 110.6 -56 114 C-55.01 114.33 -54.02 114.66 -53 115 C-51.68 114.34 -50.36 113.68 -49 113 C-49 110.03 -49 107.06 -49 104 C-49.99 104 -50.98 104 -52 104 Z M-105 137 C-104.37332695 144.38259714 -104.37332695 144.38259714 -101 150 C-97.78144775 152.33067577 -94.89509474 152.46741137 -91 152 C-87.96477105 150.36564595 -85.71647703 148.944447 -83.625 146.1875 C-82.67949202 143.25739445 -82.67949202 143.25739445 -83 137 C-90.26 137 -97.52 137 -105 137 Z " fill="#3D9AE2" transform="translate(177,6)"/>
<path d="M0 0 C0.37125 0.886875 0.7425 1.77375 1.125 2.6875 C3.56419644 6.99674704 6.5074588 9.7537294 11 12 C17.17985348 12.63463142 22.78890864 12.53654571 28.2734375 9.421875 C31.4019578 6.84544652 33.14107205 3.53882592 35 0 C42.2226297 2.34943883 49.34633995 4.90451888 56.4375 7.625 C57.50548828 8.01300781 58.57347656 8.40101563 59.67382812 8.80078125 C70.06528432 12.82532812 78.02498066 18.92425047 83.16015625 28.95703125 C84.55034708 32.33875128 85.12537876 35.38334237 85.11352539 39.03417969 C85.11344986 39.81468689 85.11337433 40.59519409 85.11329651 41.39935303 C85.10813522 42.23178528 85.10297394 43.06421753 85.09765625 43.921875 C85.09553383 45.21185394 85.09553383 45.21185394 85.09336853 46.52789307 C85.08778097 49.26863109 85.07523075 52.00928676 85.0625 54.75 C85.05748339 56.6106759 85.05292077 58.47135309 85.04882812 60.33203125 C85.03866745 64.88807792 85.01908961 69.44394701 85 74 C77.74 74 70.48 74 63 74 C63 60.14 63 46.28 63 32 C60.36 32 57.72 32 55 32 C55 45.86 55 59.72 55 74 C29.92 74 4.84 74 -21 74 C-21 60.14 -21 46.28 -21 32 C-23.31 32 -25.62 32 -28 32 C-28 45.86 -28 59.72 -28 74 C-35.59 74 -43.18 74 -51 74 C-51.09237735 68.77041565 -51.17184382 63.54371836 -51.21972656 58.31396484 C-51.23970839 56.53912711 -51.26690355 54.76435406 -51.30175781 52.98974609 C-51.56390027 39.28894743 -50.7475718 28.51639841 -41 18 C-34.93017127 12.22576408 -27.42490826 9.38889042 -19.74389648 6.42041016 C-17.66939003 5.6179951 -15.60303603 4.79687973 -13.53710938 3.97265625 C-3.46067285 0 -3.46067285 0 0 0 Z " fill="#BBDAFE" transform="translate(66,153)"/>
<path d="M0 0 C4.91597331 3.72805174 8.27574689 9.10849066 10.20703125 14.90234375 C10.83980895 23.06621345 11.05575428 30.06932483 6.20703125 36.90234375 C5.15515625 38.48015625 5.15515625 38.48015625 4.08203125 40.08984375 C-0.49542912 45.30900418 -8.03424816 48.34731133 -14.8359375 49.140625 C-20.85607258 49.34897212 -25.7545857 48.32158669 -30.79296875 44.90234375 C-32.55833282 42.98486215 -34.00136445 41.02730814 -35.4453125 38.859375 C-36.88162795 36.63926421 -36.88162795 36.63926421 -39.60546875 34.15234375 C-43.87665643 29.75912213 -43.12402765 24.0172778 -43.078125 18.16796875 C-42.68437956 13.65877435 -41.32927996 10.5923243 -38.79296875 6.90234375 C-38.21546875 6.01546875 -37.63796875 5.12859375 -37.04296875 4.21484375 C-26.5015672 -6.61937451 -12.64339073 -7.74028931 0 0 Z " fill="#BBDAFE" transform="translate(182.79296875,129.09765625)"/>
<path d="M0 0 C8.50206192 5.0260808 14.80678665 11.82697933 17.94140625 21.34765625 C18.41067477 23.99037897 18.4069339 26.50505262 18.375 29.1875 C18.36597656 30.17234375 18.35695313 31.1571875 18.34765625 32.171875 C18.33605469 32.91953125 18.32445313 33.6671875 18.3125 34.4375 C16.1015625 34.734375 16.1015625 34.734375 13.3125 34.4375 C10.9609375 32.390625 10.9609375 32.390625 8.6875 29.6875 C7.93210938 28.80578125 7.17671875 27.9240625 6.3984375 27.015625 C4.65099193 24.85586081 2.95560062 22.67714034 1.3125 20.4375 C-1.76115827 21.03848285 -3.73353455 21.98000442 -6.21875 23.87109375 C-6.86457031 24.35513672 -7.51039062 24.83917969 -8.17578125 25.33789062 C-8.83964844 25.84513672 -9.50351563 26.35238281 -10.1875 26.875 C-11.50829797 27.87649826 -12.83115456 28.87528849 -14.15625 29.87109375 C-14.73826172 30.31509521 -15.32027344 30.75909668 -15.91992188 31.21655273 C-20.15130894 34.13936581 -23.00686108 34.68005126 -28.203125 34.6328125 C-30.07871094 34.62314453 -30.07871094 34.62314453 -31.9921875 34.61328125 C-33.29414062 34.59652344 -34.59609375 34.57976562 -35.9375 34.5625 C-37.25492188 34.55347656 -38.57234375 34.54445312 -39.9296875 34.53515625 C-43.18247462 34.51158533 -46.43489589 34.47868022 -49.6875 34.4375 C-50.01103602 24.39543955 -47.84120401 16.15272685 -41.38671875 8.21875 C-30.54847525 -3.14271905 -14.45916587 -6.82793944 0 0 Z " fill="#BBDAFE" transform="translate(98.6875,44.5625)"/>
<path d="M0 0 C5.30186161 5.30186161 8.1121587 8.41259262 8.375 15.875 C8.09995722 23.83928225 5.43998986 29.2810363 0 35 C-0.99 35.495 -0.99 35.495 -2 36 C-1.99476318 36.56518845 -1.98952637 37.13037689 -1.98413086 37.71269226 C-1.93739891 43.60199015 -1.94647671 49.48933744 -1.98779297 55.37866211 C-1.99589794 57.57559597 -1.98982918 59.77263011 -1.96923828 61.96948242 C-1.94207858 65.13072892 -1.96609111 68.28810967 -2 71.44921875 C-1.97087524 72.91979988 -1.97087524 72.91979988 -1.94116211 74.42008972 C-1.96057861 75.34066666 -1.97999512 76.26124359 -2 77.2097168 C-2 78.0157988 -2 78.8218808 -2 79.65238953 C-3 82 -3 82 -11 87 C-11 71.49 -11 55.98 -11 40 C-13.64 40 -16.28 40 -19 40 C-19 48.91 -19 57.82 -19 67 C-21.31 66.67 -23.62 66.34 -26 66 C-25.99363525 65.15816162 -25.98727051 64.31632324 -25.98071289 63.44897461 C-25.97355187 60.29660469 -25.99780891 57.14641002 -26.04272461 53.99438477 C-26.05578711 52.63572344 -26.05666939 51.27688409 -26.04467773 49.91821289 C-25.78320091 41.89648184 -25.78320091 41.89648184 -28.55249023 34.61425781 C-30.37087358 32.75430737 -30.37087358 32.75430737 -32.3125 31.3112793 C-35.17450757 29.08734373 -36.29295228 26.43512563 -37 23 C-37.85388879 15.50688604 -37.77541755 9.63479168 -33.2890625 3.390625 C-32 2 -32 2 -30 1 C-29.67 6.94 -29.34 12.88 -29 19 C-27.47375 19.639375 -25.9475 20.27875 -24.375 20.9375 C-23.51648438 21.29714844 -22.65796875 21.65679687 -21.7734375 22.02734375 C-15.79264456 24.12483311 -12.45251197 24.21725545 -6.625 21.5625 C-4.76875 20.716875 -2.9125 19.87125 -1 19 C-0.67 12.73 -0.34 6.46 0 0 Z " fill="#B9D9FE" transform="translate(200,17)"/>
<path d="M0 0 C0.90492187 0.02320312 1.80984375 0.04640625 2.7421875 0.0703125 C5.1553125 0.1321875 5.1553125 0.1321875 7.6171875 0.1953125 C7.6171875 6.4653125 7.6171875 12.7353125 7.6171875 19.1953125 C6.0084375 19.2365625 4.3996875 19.2778125 2.7421875 19.3203125 C1.83726563 19.34351562 0.93234375 19.36671875 0 19.390625 C-2.3828125 19.1953125 -2.3828125 19.1953125 -4.3828125 17.1953125 C-4.58130321 14.64996109 -4.66133025 12.23814491 -4.6328125 9.6953125 C-4.64054687 9.00566406 -4.64828125 8.31601563 -4.65625 7.60546875 C-4.628078 0.37935066 -4.628078 0.37935066 0 0 Z " fill="#B4D6FD" transform="translate(34.3828125,82.8046875)"/>
<path d="M0 0 C2.97 0 5.94 0 9 0 C11.49210439 2.49210439 11.26015661 4.00360788 11.2734375 7.41015625 C11.26570312 8.09980469 11.25796875 8.78945312 11.25 9.5 C11.25773438 10.18964844 11.26546875 10.87929687 11.2734375 11.58984375 C11.25333293 16.74666707 11.25333293 16.74666707 9 19 C6.03 19 3.06 19 0 19 C0 12.73 0 6.46 0 0 Z " fill="#BAD9FE" transform="translate(125,83)"/>
<path d="M0 0 C2.71675995 0.36712972 4.61063713 0.72744599 6.875 2.3125 C8 4 8 4 7.875 6 C6.86923687 8.29888716 6.01904858 9.50440846 4 11 C2.68 11 1.36 11 0 11 C0 10.34 0 9.68 0 9 C-1.32 8.34 -2.64 7.68 -4 7 C-3.6875 5.0625 -3.6875 5.0625 -3 3 C-2.01 2.67 -1.02 2.34 0 2 C0 1.34 0 0.68 0 0 Z " fill="#31A9E7" transform="translate(199,111)"/>
<path d="M0 0 C2.49361571 1.20381448 4.68143083 2.45428722 7 4 C6.45773019 7.79588866 4.79872437 9.47211993 2 12 C-0.88437779 10.70700306 -2.87219421 9.34058637 -5 7 C-3.70700306 4.11562221 -2.34058637 2.12780579 0 0 Z " fill="#3B97DF" transform="translate(200,180)"/>
<path d="M0 0 C2.97 0 5.94 0 9 0 C9.09765625 6.15234375 9.09765625 6.15234375 9 8 C8 9 8 9 6.15234375 9.09765625 C4.1015625 9.06510417 2.05078125 9.03255208 0 9 C0 6.03 0 3.06 0 0 Z " fill="#3C99E1" transform="translate(162,196)"/>
<path d="M0 0 C2.97 0 5.94 0 9 0 C9.09765625 6.15234375 9.09765625 6.15234375 9 8 C8 9 8 9 6.15234375 9.09765625 C4.1015625 9.06510417 2.05078125 9.03255208 0 9 C0 6.03 0 3.06 0 0 Z " fill="#3C99E1" transform="translate(60,94)"/>
<path d="M0 0 C2.97 0 5.94 0 9 0 C9 2.64 9 5.28 9 8 C6.03 8 3.06 8 0 8 C0 5.36 0 2.72 0 0 Z " fill="#3C99E1" transform="translate(211,147)"/>
<path d="M0 0 C2.97 0 5.94 0 9 0 C9 2.64 9 5.28 9 8 C6.03 8 3.06 8 0 8 C0 5.36 0 2.72 0 0 Z " fill="#3C99E2" transform="translate(162,98)"/>
<path d="M0 0 C2.64 0 5.28 0 8 0 C8 2.97 8 5.94 8 9 C5.36 9 2.72 9 0 9 C0 6.03 0 3.06 0 0 Z " fill="#3C99E1" transform="translate(98,94)"/>
</svg>
