<?xml version="1.0" encoding="UTF-8"?>
<svg version="1.1" xmlns="http://www.w3.org/2000/svg" width="180" height="242">
<path d="M0 0 C5.11906197 1.56771319 8.75109681 6.29613171 12.41647339 10.02444458 C13.39193998 10.99519171 14.36844334 11.96489803 15.34593201 12.93360901 C17.3871311 14.96450686 19.41518183 17.00747573 21.43478394 19.05984497 C24.01948234 21.6844285 26.63434815 24.27632025 29.259902 26.85995579 C31.28099909 28.8557083 33.28506542 30.867897 35.28444099 32.88538933 C36.24214664 33.84775104 37.20504245 34.80497729 38.17321587 35.75680733 C46.66106946 44.13260297 46.66106946 44.13260297 46.83566284 48.60110474 C45.87626872 52.61440385 43.82886804 54.77810095 40.85787964 57.45803833 C40.36674683 57.93434692 39.87561401 58.41065552 39.36959839 58.90139771 C34.36622934 63.64459157 31.24151826 64.87286729 24.52194214 64.81350708 C20.60800151 66.16248662 18.56857962 69.42991022 16.10787964 72.64553833 C18.28889641 75.02656101 20.47886743 77.39917558 22.67037964 79.77053833 C23.27946167 80.43569458 23.8885437 81.10085083 24.51608276 81.78616333 C28.02184688 85.5701627 31.59972644 89.06286718 35.60006714 92.32302856 C37.10787964 93.64553833 37.10787964 93.64553833 39.54537964 96.58303833 C41.52822065 98.95277515 43.21226367 100.64536574 45.54537964 102.58303833 C49.73815071 106.13933561 53.3956222 110.10330246 57.10787964 114.14553833 C62.58486729 120.1094146 62.58486729 120.1094146 68.54537964 125.58303833 C71.20073387 127.82546491 73.70655353 130.12963603 76.10787964 132.64553833 C76.68537964 133.24366333 77.26287964 133.84178833 77.85787964 134.45803833 C79.74786591 137.76551431 79.65774131 139.89684634 79.10787964 143.64553833 C77.58124132 146.13679075 75.66435267 148.02531939 73.54537964 150.02053833 C73.03168823 150.55292114 72.51799683 151.08530396 71.98873901 151.63381958 C68.20066873 155.33248199 65.60551839 156.54290814 60.10787964 156.64553833 C57.45816287 155.15449131 55.52370823 153.07420256 53.4382019 150.88406372 C52.8129512 150.25998123 52.1877005 149.63589874 51.54350281 148.99290466 C49.48423093 146.92806496 47.4547279 144.8363581 45.42428589 142.74319458 C44.00114722 141.30513309 42.57623032 139.86882938 41.14961243 138.43421936 C37.40153292 134.65561075 33.6780953 130.8535975 29.95925903 127.04623413 C26.15943914 123.16454297 22.33683929 119.30543163 18.51608276 115.44436646 C11.02419099 107.86670454 3.55813355 100.26412613 -3.89212036 92.64553833 C-5.04138302 93.59975641 -6.18642577 94.55905878 -7.32962036 95.52053833 C-8.28674927 96.32104614 -8.28674927 96.32104614 -9.26321411 97.13772583 C-11.0001704 98.56781403 -11.0001704 98.56781403 -11.89212036 100.64553833 C-11.9434567 102.02021127 -11.98357836 103.39531615 -12.01712036 104.77053833 C-12.62300078 110.66840553 -15.71817224 113.69519458 -19.89212036 117.64553833 C-20.50055786 118.25010864 -21.10899536 118.85467896 -21.73587036 119.47756958 C-26.06978122 123.53585891 -26.06978122 123.53585891 -29.21603394 123.95549011 C-32.79179382 123.54133564 -33.94187333 122.23547168 -36.48294067 119.71755981 C-37.36024841 118.85924057 -38.23755615 118.00092133 -39.14144897 117.11659241 C-40.08509454 116.1673143 -41.02800917 115.21730912 -41.97024536 114.26663208 C-42.94653813 113.29624987 -43.92349751 112.32653791 -44.90109253 111.35746765 C-46.94685501 109.32358499 -48.9830528 107.28068317 -51.01321411 105.23123169 C-53.60963708 102.61196183 -56.23001367 100.01827909 -58.85838699 97.43112087 C-60.8817597 95.4333906 -62.89078633 93.42170144 -64.89592743 91.40568733 C-65.85620819 90.44392418 -66.82106322 89.48670499 -67.79059601 88.53426933 C-76.29276661 80.15783662 -76.29276661 80.15783662 -77.13577271 75.7036438 C-76.88711541 72.58272063 -76.76192464 71.52225384 -74.54055786 69.40725708 C-73.75745239 68.64252075 -73.75745239 68.64252075 -72.95852661 67.86233521 C-72.40036255 67.35766724 -71.84219849 66.85299927 -71.26712036 66.33303833 C-70.73215942 65.80903442 -70.19719849 65.28503052 -69.64602661 64.74514771 C-65.43944682 60.74838516 -61.74405603 58.55644644 -55.82962036 58.33303833 C-51.84127717 58.03322539 -51.84127717 58.03322539 -49.70462036 55.39553833 C-48.80743286 54.03428833 -48.80743286 54.03428833 -47.89212036 52.64553833 C-46.24782207 50.95679954 -44.57827819 49.29248318 -42.89212036 47.64553833 C-41.72411193 46.48021497 -40.55752235 45.31346831 -39.39212036 44.14553833 C-25.89212036 30.64553833 -25.89212036 30.64553833 -24.09133911 29.12600708 C-19.43592561 25.01035167 -18.37649441 22.2104353 -17.53665161 16.13772583 C-16.36595042 11.61101456 -13.14372508 8.8404702 -9.89212036 5.64553833 C-8.65462036 4.16053833 -8.65462036 4.16053833 -7.39212036 2.64553833 C-4.8159303 0.58458628 -3.30415542 -0.11536039 0 0 Z " fill="#FEC24D" transform="translate(100.89212036132813,67.35446166992188)"/>
<path d="M0 0 C1.15421951 -0.0098568 1.15421951 -0.0098568 2.33175659 -0.01991272 C4.87904968 -0.03962748 7.42628384 -0.05130482 9.97363281 -0.0612793 C10.84474953 -0.06535482 11.71586624 -0.06943035 12.61338043 -0.07362938 C17.2249986 -0.09448331 21.83658708 -0.10878741 26.44824219 -0.11816406 C31.20409303 -0.12922135 35.95947508 -0.16361519 40.71516037 -0.20333576 C44.37840628 -0.22952102 48.04154087 -0.23785763 51.70487213 -0.24144554 C53.45750338 -0.24630732 55.2101298 -0.25790967 56.96266937 -0.27648354 C59.42079975 -0.30091411 61.87772209 -0.29990313 64.3359375 -0.29296875 C65.05411652 -0.30577881 65.77229553 -0.31858887 66.51223755 -0.33178711 C71.99475374 -0.27567199 75.00132478 1.17657108 79.42675781 4.17700195 C84.33239592 9.46992728 84.53982372 13.27998132 84.42675781 20.17700195 C85.25820312 20.14219727 86.08964844 20.10739258 86.94628906 20.0715332 C88.57630859 20.03092773 88.57630859 20.03092773 90.23925781 19.98950195 C91.31820312 19.95469727 92.39714844 19.91989258 93.50878906 19.8840332 C96.42675781 20.17700195 96.42675781 20.17700195 98.29394531 21.49731445 C100.03096804 24.07289988 99.74777713 26.15942038 99.42675781 29.17700195 C96.84665073 31.75710904 95.851956 31.42813427 92.2644043 31.43096924 C90.62385574 31.43942871 90.62385574 31.43942871 88.95016479 31.44805908 C87.74490143 31.44401062 86.53963806 31.43996216 85.29785156 31.43579102 C84.03280792 31.43929565 82.76776428 31.44280029 81.46438599 31.44641113 C77.98923558 31.45554773 74.5142036 31.45198571 71.03905106 31.44565296 C67.40713424 31.44059951 63.77522775 31.44528258 60.14331055 31.44842529 C54.04343846 31.45206686 47.94361475 31.44726087 41.84375 31.43774414 C34.78527798 31.4268592 27.72692148 31.43038465 20.66845226 31.44139695 C14.61491753 31.45046443 8.56141763 31.45175776 2.5078783 31.44651961 C-1.11058128 31.44339693 -4.72898651 31.4429987 -8.34744263 31.44959259 C-12.37981033 31.45642708 -16.41197796 31.44696214 -20.44433594 31.43579102 C-22.25223099 31.44186371 -22.25223099 31.44186371 -24.09664917 31.44805908 C-25.19034821 31.44241943 -26.28404724 31.43677979 -27.41088867 31.43096924 C-28.36511215 31.43021519 -29.31933563 31.42946114 -30.30247498 31.42868423 C-32.57324219 31.17700195 -32.57324219 31.17700195 -34.57324219 29.17700195 C-34.88574219 25.67700195 -34.88574219 25.67700195 -34.57324219 22.17700195 C-31.15229977 19.89637368 -29.89136996 19.95775189 -25.88574219 20.05200195 C-24.39494141 20.07907227 -24.39494141 20.07907227 -22.87402344 20.10668945 C-22.11476563 20.12989258 -21.35550781 20.1530957 -20.57324219 20.17700195 C-20.53585938 19.58532227 -20.49847656 18.99364258 -20.45996094 18.3840332 C-19.91294462 11.80911155 -18.63849023 7.85123846 -13.57324219 3.42700195 C-9.05974884 0.04188194 -5.42445769 0.02008306 0 0 Z " fill="#5D3272" transform="translate(40.5732421875,210.822998046875)"/>
<path d="M0 0 C3.28254528 1.48368555 5.35971726 4.32632287 7.67993164 6.99731445 C11.6604924 11.45838186 15.67465482 15.5593829 20.26977539 19.3996582 C22.78532224 21.63109623 24.77992853 24.29231072 26.92993164 26.87231445 C28.06026166 27.86933774 29.20815087 28.84660654 30.36743164 29.80981445 C34.56020271 33.36611174 38.21767421 37.33007858 41.92993164 41.37231445 C47.4069193 47.33619073 47.4069193 47.33619073 53.36743164 52.80981445 C56.02278587 55.05224103 58.52860553 57.35641215 60.92993164 59.87231445 C61.50743164 60.47043945 62.08493164 61.06856445 62.67993164 61.68481445 C64.56991791 64.99229043 64.47979331 67.12362246 63.92993164 70.87231445 C62.40329332 73.36356687 60.48640467 75.25209551 58.36743164 77.24731445 C57.85374023 77.77969727 57.34004883 78.31208008 56.81079102 78.8605957 C53.02178609 82.56017069 50.42785555 83.76396477 44.92993164 83.87231445 C42.30525572 82.04482703 40.42962977 80.4390374 38.24438477 78.17431641 C37.61752777 77.55665909 36.99067078 76.93900177 36.34481812 76.30262756 C34.28008908 74.25780067 32.24565628 72.18549266 30.21118164 70.1105957 C28.78528203 68.6824668 27.35797477 67.25574207 25.92932129 65.83036804 C22.94120041 62.84050405 19.96725225 59.83742715 17.00317383 56.82373047 C13.19725529 52.95536137 9.36317245 49.11646409 5.51880646 45.28634357 C2.57011144 42.34404857 -0.36587863 39.38934604 -3.29786682 36.43041039 C-4.70764364 35.00973144 -6.12076389 33.59236242 -7.53721619 32.178339 C-9.51074089 30.20339264 -11.46720877 28.21302075 -13.41967773 26.21728516 C-14.01072296 25.63164795 -14.60176819 25.04601074 -15.21072388 24.44262695 C-16.80773926 22.78974915 -16.80773926 22.78974915 -19.07006836 19.87231445 C-18.37281786 14.42194181 -13.97229991 11.26154607 -10.25756836 7.55981445 C-9.5324707 6.80635742 -8.80737305 6.05290039 -8.06030273 5.27661133 C-7.35583008 4.56956055 -6.65135742 3.86250977 -5.92553711 3.1340332 C-5.28253662 2.48394287 -4.63953613 1.83385254 -3.97705078 1.1640625 C-2.07006836 -0.12768555 -2.07006836 -0.12768555 0 0 Z " fill="#954E3C" transform="translate(116.070068359375,140.127685546875)"/>
<path d="M0 0 C5.12091482 1.54789814 8.75453586 6.29153447 12.4160614 10.01593018 C13.39152799 10.9866773 14.36803135 11.95638363 15.34552002 12.9250946 C17.38671912 14.95599246 19.41476984 16.99896133 21.43437195 19.05133057 C24.01907036 21.6759141 26.63393616 24.26780585 29.25949001 26.85144138 C31.2805871 28.8471939 33.28465343 30.85938259 35.28402901 32.87687492 C36.24173466 33.83923663 37.20463046 34.79646289 38.17280388 35.74829292 C46.66065747 44.12408857 46.66065747 44.12408857 46.83525085 48.59259033 C45.87585674 52.60588944 43.82845605 54.76958655 40.85746765 57.44952393 C40.36633484 57.92583252 39.87520203 58.40214111 39.3691864 58.8928833 C34.71158575 63.30828872 31.72655079 64.81188257 25.30278015 65.09796143 C18.79854826 63.7323042 13.86468485 57.68642795 9.37309265 53.16827393 C8.6538562 52.45095093 7.93461975 51.73362793 7.19358826 50.99456787 C5.681791 49.48412619 4.17249476 47.97117755 2.66557312 46.45587158 C0.35805112 44.13761011 -1.95998417 41.8302475 -4.2792511 39.52374268 C-5.74994515 38.05172754 -7.22001895 36.57909239 -8.68940735 35.10577393 C-9.38209717 34.41713257 -10.07478699 33.72849121 -10.78846741 33.01898193 C-11.42963501 32.37151001 -12.07080261 31.72403809 -12.73139954 31.0569458 C-13.29510254 30.49165161 -13.85880554 29.92635742 -14.43959045 29.34393311 C-17.5596323 25.67852289 -18.36324591 22.49741665 -18.1933136 17.64093018 C-17.26871041 11.48091154 -11.45157815 6.798212 -7.4042511 2.39483643 C-4.83019523 0.59339764 -3.1525263 -0.09897945 0 0 Z " fill="#FF9933" transform="translate(100.89253234863281,67.36297607421875)"/>
<path d="M0 0 C3.22745524 1.41901662 5.37258107 3.12855765 7.85058594 5.62353516 C8.59105164 6.36415192 9.33151733 7.10476868 10.09442139 7.86782837 C10.88310608 8.66683563 11.67179077 9.4658429 12.484375 10.2890625 C13.29996887 11.10748627 14.11556274 11.92591003 14.95587158 12.76913452 C17.55864562 15.38309973 20.15437762 18.00393505 22.75 20.625 C24.5138634 22.39889454 26.2781809 24.17233766 28.04296875 25.9453125 C32.36726136 30.29165142 36.6857933 34.64365081 41 39 C38.74340398 43.68879612 35.54816243 46.98096802 32 50.75 C31.35804687 51.44738281 30.71609375 52.14476562 30.0546875 52.86328125 C29.43851563 53.52199219 28.82234375 54.18070313 28.1875 54.859375 C27.62417969 55.46233398 27.06085938 56.06529297 26.48046875 56.68652344 C25 58 25 58 23 58 C22.07420871 56.60273098 21.15311202 55.20215513 20.25415039 53.78747559 C17.88383008 50.40918083 14.88819609 47.60424363 11.96875 44.703125 C10.95935364 43.69085846 10.95935364 43.69085846 9.92956543 42.65814209 C8.51328028 41.24050199 7.09449051 39.82536015 5.67333984 38.41259766 C3.49992922 36.24992957 1.33743491 34.07675632 -0.82421875 31.90234375 C-2.20508807 30.52279549 -3.58657738 29.14386747 -4.96875 27.765625 C-5.6136438 27.11668274 -6.2585376 26.46774048 -6.92297363 25.7991333 C-7.53040405 25.1980072 -8.13783447 24.5968811 -8.76367188 23.97753906 C-9.29343628 23.44936584 -9.82320068 22.92119263 -10.36901855 22.37701416 C-12.13741961 20.8839786 -13.89783043 19.95173597 -16 19 C-14.74012579 15.90758149 -13.03835836 13.92612078 -10.640625 11.63671875 C-6.92061774 7.92556865 -3.4952192 3.92165118 0 0 Z " fill="#FEE97F" transform="translate(64,109)"/>
<path d="M0 0 C4.67299695 3.90483368 9.10328418 7.96146358 13.39428711 12.28076172 C13.9902771 12.87660568 14.58626709 13.47244965 15.20031738 14.08634949 C17.14504295 16.03176472 19.0862148 17.98068414 21.02734375 19.9296875 C22.38475488 21.28896617 23.74238879 22.6480224 25.10023499 24.00686646 C28.65502433 27.56545447 32.20679893 31.12703645 35.75793457 34.68927002 C39.38952638 38.3311332 43.02398832 41.97012963 46.65820312 45.609375 C53.77493271 52.73679511 60.88847777 59.86738441 68 67 C66.27403168 70.75141972 64.50718564 72.71625121 61 75 C58.73568726 75.47259521 58.73568726 75.47259521 56 75 C53.64036544 73.13356105 51.63658691 71.31999107 49.54150391 69.18847656 C48.91493896 68.57067322 48.28837402 67.95286987 47.64282227 67.31634521 C45.57464227 65.27017758 43.52529432 63.20625179 41.4765625 61.140625 C40.0471486 59.71457822 38.61699308 58.28927445 37.18612671 56.86468506 C34.19058483 53.87651673 31.20427928 50.87948523 28.22412109 47.87597656 C24.39732973 44.02067265 20.54849662 40.18828287 16.69249916 36.36221695 C13.7358669 33.42362186 10.79121005 30.47325943 7.85007858 27.51915741 C6.43511699 26.10085329 5.01641223 24.68627363 3.5939827 23.27545929 C1.61103242 21.30516046 -0.35525632 19.31962902 -2.31787109 17.32910156 C-2.91205841 16.7450354 -3.50624573 16.16096924 -4.11843872 15.5592041 C-5.72421265 13.91070557 -5.72421265 13.91070557 -8 11 C-7.54759782 7.35577479 -6.07153947 5.74036459 -3.4375 3.25 C-2.79683594 2.63640625 -2.15617187 2.0228125 -1.49609375 1.390625 C-1.00238281 0.93171875 -0.50867188 0.4728125 0 0 Z " fill="#C37159" transform="translate(105,149)"/>
<path d="M0 0 C0.0991017 6.01394883 0.17157916 12.02741915 0.21972656 18.04199219 C0.2398042 20.0866728 0.26707225 22.13129627 0.30175781 24.17578125 C0.35044519 27.11993537 0.37300744 30.06332834 0.390625 33.0078125 C0.41127014 33.9174173 0.43191528 34.82702209 0.45318604 35.76419067 C0.45519814 41.49459304 -0.22847558 44.61436508 -4 49 C-7.14730958 50.95643569 -8.89237126 51.00371134 -12.625 50.875 C-16 50 -16 50 -18 48.375 C-19.46981805 44.88418213 -18.98413921 42.60851044 -18 39 C-14.51924428 34.64905535 -10.94462859 35.66051429 -5 35 C-4.67 27.41 -4.34 19.82 -4 12 C-5.78148437 12.5053125 -7.56296875 13.010625 -9.3984375 13.53125 C-11.7239199 14.18763616 -14.04944284 14.84387875 -16.375 15.5 C-17.550625 15.83386719 -18.72625 16.16773437 -19.9375 16.51171875 C-21.05898438 16.82753906 -22.18046875 17.14335938 -23.3359375 17.46875 C-24.37282715 17.76201172 -25.4097168 18.05527344 -26.47802734 18.35742188 C-29 19 -29 19 -31 19 C-30.98428955 19.90766113 -30.9685791 20.81532227 -30.95239258 21.75048828 C-30.9010687 25.13873072 -30.86355584 28.52655619 -30.83520508 31.91503906 C-30.82017804 33.37767075 -30.79975045 34.84025782 -30.77368164 36.30273438 C-30.73702733 38.4128728 -30.72021324 40.52241226 -30.70703125 42.6328125 C-30.6913208 43.90012207 -30.67561035 45.16743164 -30.65942383 46.47314453 C-31.09527261 50.98660082 -32.73465497 54.06868391 -35.1875 57.8125 C-38.20863826 59.79186645 -41.47066887 60.1100766 -45 60 C-47.9375 58.875 -47.9375 58.875 -50 57 C-51 54.625 -51 54.625 -51 52 C-49.61442213 49.16286436 -48.22998296 47.22998296 -46 45 C-43.90625 44.55078125 -43.90625 44.55078125 -41.5 44.3125 C-40.7059375 44.22613281 -39.911875 44.13976562 -39.09375 44.05078125 C-37 44 -37 44 -35 45 C-35 33.12 -35 21.24 -35 9 C-31.349375 7.88625 -27.69875 6.7725 -23.9375 5.625 C-22.80046631 5.27775879 -21.66343262 4.93051758 -20.49194336 4.57275391 C-18.56691386 3.98619107 -16.64098636 3.40257038 -14.71435547 2.82128906 C-13.09621693 2.33168499 -11.47990181 1.83588383 -9.86767578 1.32714844 C-6.45028603 0.27664153 -3.55907389 -0.07453164 0 0 Z " fill="#8CC951" transform="translate(70,34)"/>
<path d="M0 0 C0.80060349 0.00007553 1.60120697 0.00015106 2.42607117 0.00022888 C3.71527214 0.00797081 3.71527214 0.00797081 5.03051758 0.01586914 C5.91411453 0.01728409 6.79771149 0.01869904 7.70808411 0.02015686 C10.53044011 0.0257547 13.3527168 0.03830678 16.17504883 0.05102539 C18.08845914 0.05604067 20.0018707 0.06060353 21.9152832 0.06469727 C26.60609355 0.07487256 31.29673241 0.09444841 35.98754883 0.11352539 C35.98754883 7.04352539 35.98754883 13.97352539 35.98754883 21.11352539 C18.49754883 21.11352539 1.00754883 21.11352539 -17.01245117 21.11352539 C-17.01245117 14.54289093 -16.99044381 10.2464018 -12.36010742 5.37524414 C-8.39042428 1.85875949 -5.43210084 -0.01713596 0 0 Z " fill="#8B4C8B" transform="translate(37.012451171875,210.886474609375)"/>
<path d="M0 0 C1.9216523 0.03025772 1.9216523 0.03025772 3.88212585 0.06112671 C5.28055316 0.09342983 6.67897531 0.12595666 8.07739258 0.15869141 C9.50798464 0.18486253 10.93859352 0.21012922 12.36921692 0.23452759 C16.13248991 0.30113974 19.89540895 0.38004054 23.65838623 0.46148682 C27.49908881 0.54244504 31.33999886 0.61180136 35.1809082 0.68212891 C42.71566479 0.82180451 50.25008518 0.97446053 57.78442383 1.13525391 C57.78442383 4.43525391 57.78442383 7.73525391 57.78442383 11.13525391 C49.34403188 11.18153915 40.90369272 11.21710359 32.46320534 11.23887825 C28.54419099 11.24932756 24.6252633 11.26350753 20.70629883 11.28613281 C16.92619344 11.30782052 13.14617155 11.31981389 9.36600876 11.32500839 C7.92186544 11.3287115 6.47772682 11.33594251 5.03361893 11.34671402 C3.01521489 11.36117407 0.99672731 11.36207036 -1.02172852 11.36230469 C-2.74714371 11.36896652 -2.74714371 11.36896652 -4.50741577 11.37576294 C-7.21557617 11.13525391 -7.21557617 11.13525391 -9.21557617 9.13525391 C-9.52807617 5.63525391 -9.52807617 5.63525391 -9.21557617 2.13525391 C-5.64767062 -0.24334979 -4.2234107 -0.08297467 0 0 Z " fill="#5D3272" transform="translate(15.215576171875,230.86474609375)"/>
<path d="M0 0 C1.07334595 -0.02715088 2.14669189 -0.05430176 3.25256348 -0.08227539 C4.70115753 -0.13152161 4.70115753 -0.13152161 6.17901611 -0.1817627 C8.65588379 0.11889648 8.65588379 0.11889648 10.47406006 1.44006348 C12.27957175 4.00487288 11.97960767 6.07589198 11.65588379 9.11889648 C9.65588379 11.11889648 9.65588379 11.11889648 6.94772339 11.35940552 C5.79744659 11.35496429 4.6471698 11.35052307 3.46203613 11.34594727 C2.16083832 11.3457962 0.8596405 11.34564514 -0.48098755 11.3454895 C-1.90671948 11.33527541 -3.33244986 11.32484341 -4.75817871 11.31420898 C-6.21263434 11.31047943 -7.66709248 11.30763219 -9.12155151 11.30563354 C-12.95209677 11.29799248 -16.78249067 11.27834006 -20.61297607 11.25622559 C-24.52073112 11.23577727 -28.4285106 11.22663401 -32.33630371 11.21655273 C-40.00564359 11.19509451 -47.6748587 11.160953 -55.34411621 11.11889648 C-55.34411621 7.81889648 -55.34411621 4.51889648 -55.34411621 1.11889648 C-48.1582731 0.97496526 -40.9724011 0.83260684 -33.78649902 0.69165039 C-31.34638648 0.64357094 -28.90628209 0.59507585 -26.46618652 0.54614258 C-22.94114251 0.47552641 -19.41607104 0.40644863 -15.89099121 0.33764648 C-14.81549011 0.31577271 -13.73998901 0.29389893 -12.63189697 0.2713623 C-10.56256369 0.23153276 -8.49311196 0.19737226 -6.42358398 0.16943359 C-4.28193298 0.13428698 -2.14058687 0.07610628 0 0 Z " fill="#321E58" transform="translate(128.3441162109375,230.881103515625)"/>
<path d="M0 0 C6.39115958 1.5977899 11.3381484 5.5827613 15.0625 11 C16.14657705 14.46904656 16.2168245 17.38625834 16 21 C14.68 21 13.36 21 12 21 C11.84144531 20.39671875 11.68289062 19.7934375 11.51953125 19.171875 C11.28621094 18.37265625 11.05289062 17.5734375 10.8125 16.75 C10.59207031 15.96109375 10.37164063 15.1721875 10.14453125 14.359375 C8.6806013 11.34158083 6.6384133 10.0126953 4 8 C4.01047363 8.99854004 4.02094727 9.99708008 4.03173828 11.02587891 C4.06808458 14.7494749 4.09095346 18.47305536 4.10986328 22.19677734 C4.11988763 23.80487713 4.13351066 25.41295885 4.15087891 27.02099609 C4.17528488 29.33956376 4.18651886 31.65788929 4.1953125 33.9765625 C4.20563507 34.68930328 4.21595764 35.40204407 4.22659302 36.13638306 C4.22781238 41.62733218 3.65718693 46.08387762 0 50.3125 C-3.64328988 53.38652584 -6.27532754 53.32583948 -11 53 C-13.4375 52 -13.4375 52 -15 50 C-15.78796671 45.03580973 -15.78796671 45.03580973 -15 42 C-12.5625 39.5 -12.5625 39.5 -9 38 C-6.03 38 -3.06 38 0 38 C0 25.46 0 12.92 0 0 Z " fill="#FFC14F" transform="translate(15,9)"/>
<path d="M0 0 C0.99 0.66 1.98 1.32 3 2 C3.39779305 5.08289617 3.60869754 7.04430521 3 10 C0.31447371 13.27298517 -2.12362627 14.20550975 -6.1875 14.8125 C-10 15 -10 15 -12 14 C-12 26.54 -12 39.08 -12 52 C-13.32 51.67 -14.64 51.34 -16 51 C-16.07443429 45.28917253 -16.12873634 39.5786306 -16.16479492 33.86743164 C-16.17983491 31.92662636 -16.20027214 29.9858548 -16.22631836 28.04516602 C-16.26291295 25.24747368 -16.27977448 22.45023267 -16.29296875 19.65234375 C-16.30845261 18.7916478 -16.32393646 17.93095184 -16.33988953 17.04417419 C-16.34158831 10.89414715 -15.45558447 6.06948059 -11.5 1.125 C-7.71252527 -1.71560605 -4.38216909 -0.86078321 0 0 Z " fill="#CA5AA6" transform="translate(97,7)"/>
<path d="M0 0 C0 1.98 0 3.96 0 6 C-6.18584803 8.42054923 -12.423533 10.37677108 -18.8125 12.1875 C-20.22305664 12.59645508 -20.22305664 12.59645508 -21.66210938 13.01367188 C-22.56380859 13.27083984 -23.46550781 13.52800781 -24.39453125 13.79296875 C-25.61426636 14.14137817 -25.61426636 14.14137817 -26.85864258 14.49682617 C-29 15 -29 15 -32 15 C-32 13.02 -32 11.04 -32 9 C-28.31280614 7.87399499 -24.62519046 6.74937749 -20.9375 5.625 C-19.89916016 5.30789062 -18.86082031 4.99078125 -17.79101562 4.6640625 C-2.48706055 0 -2.48706055 0 0 0 Z " fill="#ABD87E" transform="translate(67,34)"/>
<path d="M0 0 C-0.48863636 6.35227273 -0.48863636 6.35227273 -2.875 9.375 C-6.78467703 12.36475302 -10.23746026 12.08985924 -15 12 C-15.88679226 8.53344843 -16.24875233 6.60806126 -14.875 3.25 C-11.21440742 -1.1427111 -5.25625932 -2.62812966 0 0 Z " fill="#ABD97F" transform="translate(67,70)"/>
<path d="M0 0 C-0.49041096 6.37534247 -0.49041096 6.37534247 -2.9375 9.375 C-7.01318234 12.58614366 -9.93623111 12.08167369 -15 12 C-16.0250719 8.73840759 -16.2176205 7.44560389 -14.6875 4.3125 C-11.76923077 0.31339031 -11.76923077 0.31339031 -9.3125 -0.6875 C-6.08928529 -1.12306955 -3.18679164 -0.55156009 0 0 Z " fill="#AAD77E" transform="translate(35,79)"/>
<path d="M0 0 C-0.36842105 7.36842105 -0.36842105 7.36842105 -3.4375 10.4375 C-7.31123486 12.79953345 -9.4323252 13.19436914 -14 13 C-15 12 -15 12 -15.4375 8.1875 C-15.37363215 4.63006064 -15.20252132 4.20771418 -12.5625 1.5 C-8.17347766 -0.34800941 -4.68548971 -0.37483918 0 0 Z " fill="#FFDF7B" transform="translate(15,47)"/>
<path d="M0 0 C2 3 2 3 1.8125 6.0625 C1 9 1 9 -2 11 C-4.48046875 11.1953125 -4.48046875 11.1953125 -7.1875 11.125 C-8.08855469 11.10695313 -8.98960938 11.08890625 -9.91796875 11.0703125 C-10.60503906 11.04710937 -11.29210937 11.02390625 -12 11 C-12.640625 9.19921875 -12.640625 9.19921875 -13 7 C-9.29956283 1.757714 -6.54960307 -0.67175416 0 0 Z " fill="#D98AC1" transform="translate(95,6)"/>
</svg>
